<?xml version="1.0" standalone="no"?>
<!DOCTYPE svg PUBLIC "-//W3C//DTD SVG 20010904//EN"
 "http://www.w3.org/TR/2001/REC-SVG-20010904/DTD/svg10.dtd">
<svg version="1.0" xmlns="http://www.w3.org/2000/svg"
 width="512.000000pt" height="512.000000pt" viewBox="0 0 512.000000 512.000000"
 preserveAspectRatio="xMidYMid meet">

<g transform="translate(0.000000,512.000000) scale(0.100000,-0.100000)"
fill="#000000" stroke="none">
<path d="M3532 4710 l-172 -219 0 -105 c0 -100 21 -517 75 -1488 14 -245 25
-454 25 -462 0 -14 -23 -16 -185 -16 -218 0 -209 6 -203 -124 4 -101 32 -151
100 -185 39 -18 62 -21 185 -21 l141 0 6 -62 c3 -35 8 -121 11 -193 3 -71 8
-149 11 -172 l5 -43 -38 0 c-58 0 -75 -18 -81 -81 -6 -76 13 -136 57 -180 52
-53 95 -61 285 -57 185 4 220 14 264 81 21 32 28 55 30 114 5 96 -10 123 -70
123 l-41 0 7 143 c3 78 9 184 13 235 l6 92 139 0 c180 0 226 17 269 102 22 44
27 196 7 216 -8 8 -65 12 -189 12 -98 0 -180 3 -182 8 -2 4 20 464 50 1022 48
894 53 1018 40 1041 -8 14 -87 119 -176 232 -142 181 -166 207 -190 207 -24 0
-49 -27 -199 -220z m327 -79 c67 -85 121 -157 121 -162 0 -10 -238 -234 -249
-234 -4 0 -63 52 -131 116 l-123 117 124 160 c68 89 127 160 131 159 4 -1 61
-71 127 -156z m90 -1246 c-27 -517 -52 -946 -54 -953 -3 -9 -21 -12 -57 -10
l-53 3 -3 852 -2 851 107 101 c59 55 108 99 109 98 1 -1 -20 -425 -47 -942z
m-365 837 l96 -93 0 -855 0 -855 -57 3 -58 3 -47 880 c-50 944 -53 1018 -39
1013 5 -1 52 -45 105 -96z m703 -1943 c-3 -22 -13 -49 -23 -60 -16 -18 -37
-19 -531 -19 -500 0 -514 1 -533 20 -13 13 -20 33 -20 60 l0 40 556 0 557 0
-6 -41z m-431 -211 c-3 -13 -7 -84 -11 -158 -3 -74 -8 -170 -11 -212 l-7 -78
-97 0 -97 0 -6 113 c-4 61 -10 167 -13 235 l-7 122 127 0 c126 0 126 0 122
-22z m84 -588 c0 -17 -9 -39 -20 -50 -18 -18 -33 -20 -187 -20 -157 0 -168 1
-190 22 -13 13 -23 33 -23 50 l0 28 210 0 210 0 0 -30z"/>
<path d="M637 4602 c-15 -17 -17 -62 -17 -448 l0 -429 -160 -54 c-87 -29 -201
-74 -252 -100 l-93 -46 0 -1659 c0 -1544 1 -1660 17 -1669 13 -8 60 -1 191 31
357 86 620 121 967 129 420 10 752 -29 1151 -136 l112 -30 131 34 c344 91 581
123 951 132 406 9 743 -28 1158 -128 134 -33 182 -40 195 -32 16 9 17 125 17
1669 l0 1659 -60 32 c-143 77 -536 203 -630 203 -39 0 -60 -27 -51 -65 7 -26
19 -31 166 -65 108 -25 277 -82 395 -133 l80 -34 3 -1348 c2 -1281 1 -1347
-15 -1340 -193 84 -488 170 -688 200 -383 57 -811 28 -1211 -80 -75 -21 -299
-94 -366 -120 -17 -7 -18 61 -18 1338 l0 1346 48 21 c77 34 268 97 396 130 66
17 126 36 133 42 19 15 12 68 -9 82 -13 8 -47 3 -135 -18 -118 -29 -383 -115
-436 -143 -16 -8 -30 -13 -31 -11 -210 296 -336 429 -558 595 -303 227 -736
387 -1206 447 -154 20 -155 20 -175 -2z m247 -112 c672 -99 1226 -427 1560
-925 l56 -82 -1 -1304 c0 -1230 -1 -1303 -17 -1279 -175 255 -475 507 -786
660 -255 125 -595 219 -888 245 l-78 7 0 1349 c0 742 3 1349 8 1349 4 0 69 -9
146 -20z m-264 -1813 c0 -877 1 -935 18 -949 10 -10 59 -20 127 -28 504 -56
919 -217 1263 -488 133 -105 434 -430 379 -409 -51 19 -285 89 -372 111 -263
65 -459 90 -720 89 -380 0 -694 -66 -1088 -228 -16 -7 -17 59 -15 1341 l3
1347 70 30 c82 36 304 116 323 116 9 1 12 -192 12 -932z m906 -1787 c311 -25
677 -111 927 -219 l47 -20 0 -57 c0 -49 -2 -56 -17 -51 -338 100 -511 139
-758 173 -201 28 -669 26 -860 -4 -213 -33 -453 -96 -637 -167 -16 -6 -18 0
-18 49 l0 57 78 36 c189 87 495 169 717 192 211 23 339 25 521 11z m2620 -14
c249 -33 489 -100 689 -191 l75 -34 0 -57 c0 -49 -2 -55 -17 -49 -649 250
-1399 261 -2155 31 -65 -20 -120 -36 -123 -36 -3 0 -5 25 -5 56 l0 55 53 23
c71 32 280 99 402 130 172 43 342 69 585 90 85 7 385 -4 496 -18z m-2535 -256
c251 -25 636 -106 819 -172 l65 -23 3 -56 3 -56 -88 24 c-483 130 -1021 164
-1548 97 -177 -23 -494 -83 -633 -120 -22 -6 -23 -5 -20 52 l3 59 115 43 c185
70 391 120 610 147 129 16 531 19 671 5z m2519 0 c232 -24 488 -84 677 -157
l98 -38 3 -59 c2 -47 0 -57 -11 -53 -81 31 -431 99 -632 122 -190 22 -649 31
-856 16 -222 -16 -484 -55 -648 -97 -75 -18 -139 -34 -143 -34 -5 0 -8 24 -8
54 l0 53 138 42 c238 71 475 120 705 145 146 16 544 20 677 6z"/>
<path d="M1182 4038 c-16 -16 -15 -63 1 -76 6 -5 32 -15 55 -22 38 -10 47 -9
63 6 20 18 25 50 11 72 -17 27 -109 41 -130 20z"/>
<path d="M1557 3902 c-22 -24 -22 -55 1 -74 9 -8 51 -32 92 -53 147 -73 313
-192 450 -322 73 -68 107 -79 133 -42 22 31 11 53 -62 122 -142 134 -324 263
-483 343 -99 50 -108 51 -131 26z"/>
<path d="M1183 3649 c-7 -7 -13 -25 -13 -40 0 -36 11 -43 105 -69 267 -74 557
-241 812 -467 82 -73 115 -87 141 -61 27 27 13 65 -44 117 -240 219 -533 398
-795 486 -127 42 -189 52 -206 34z"/>
<path d="M1183 3259 c-7 -7 -13 -25 -13 -40 0 -35 13 -44 90 -64 257 -66 567
-243 823 -467 87 -77 119 -92 145 -66 28 28 13 64 -51 124 -92 85 -199 169
-312 243 -249 164 -637 317 -682 270z"/>
<path d="M1181 2906 c-8 -9 -11 -83 -9 -247 l3 -233 25 -13 c14 -7 59 -26 101
-43 42 -17 115 -53 164 -81 97 -56 128 -58 146 -12 6 16 9 111 7 236 l-3 209
-32 27 c-68 57 -317 171 -372 171 -10 0 -24 -6 -30 -14z m232 -179 l97 -50 0
-144 c0 -80 -3 -143 -7 -141 -36 19 -166 79 -195 91 l-38 16 0 146 0 146 23
-6 c12 -4 66 -30 120 -58z"/>
<path d="M1792 2604 c-29 -20 -28 -59 1 -79 12 -8 61 -43 108 -76 48 -33 127
-98 178 -144 91 -85 122 -100 149 -73 7 7 12 24 12 39 0 44 -215 235 -362 322
-54 32 -57 32 -86 11z"/>
<path d="M1792 2214 c-43 -30 -26 -63 59 -119 99 -65 148 -104 241 -192 77
-73 109 -88 136 -61 28 28 13 62 -55 129 -110 107 -313 259 -347 259 -6 0 -22
-7 -34 -16z"/>
</g>
</svg>
