<?xml version="1.0" standalone="no"?>
<!DOCTYPE svg PUBLIC "-//W3C//DTD SVG 20010904//EN"
 "http://www.w3.org/TR/2001/REC-SVG-20010904/DTD/svg10.dtd">
<svg version="1.0" xmlns="http://www.w3.org/2000/svg"
 width="512.000000pt" height="512.000000pt" viewBox="0 0 512.000000 512.000000"
 preserveAspectRatio="xMidYMid meet">

<g transform="translate(0.000000,512.000000) scale(0.100000,-0.100000)"
fill="#000000" stroke="none">
<path d="M634 4759 c-5 -8 -11 -209 -14 -447 l-5 -434 -149 -49 c-81 -27 -195
-71 -252 -98 l-104 -50 0 -1653 c0 -1273 3 -1657 12 -1666 18 -18 45 -15 195
23 396 99 783 142 1178 132 341 -9 590 -45 923 -132 l133 -35 182 45 c335 82
562 113 892 122 396 10 783 -33 1178 -132 154 -39 192 -43 201 -19 3 9 6 758
6 1665 l0 1649 -70 35 c-91 46 -215 95 -240 95 -11 0 -27 -11 -36 -25 -15 -23
-15 -27 -1 -48 8 -13 37 -32 64 -42 26 -10 78 -31 116 -48 l67 -30 0 -1343 c0
-747 -4 -1344 -9 -1344 -4 0 -41 14 -82 30 -623 257 -1314 266 -2036 25 -90
-30 -166 -55 -169 -55 -2 0 -4 605 -4 1344 l0 1345 83 32 c298 115 572 179
867 200 181 13 194 16 198 52 7 55 -9 61 -153 54 -290 -14 -617 -84 -910 -195
l-120 -45 -20 28 c-210 294 -384 468 -625 630 -109 73 -356 194 -490 240 -214
73 -515 138 -711 152 -68 4 -88 3 -95 -8z m271 -115 c220 -32 491 -113 698
-207 328 -151 648 -422 841 -711 l56 -85 -2 -1302 -3 -1302 -59 79 c-76 101
-267 292 -371 371 -317 239 -678 387 -1105 453 -69 11 -142 20 -162 20 -20 0
-43 3 -52 6 -14 6 -16 134 -16 1354 l0 1349 33 -4 c17 -3 82 -12 142 -21z
m-285 -1807 c0 -877 1 -935 18 -950 11 -10 71 -23 172 -37 621 -86 1027 -272
1385 -635 109 -111 232 -255 217 -255 -5 0 -35 9 -68 21 -491 170 -1009 221
-1469 144 -174 -30 -410 -97 -577 -165 -40 -17 -76 -30 -80 -30 -5 0 -8 605
-8 1344 l0 1344 88 37 c76 33 294 112 315 114 4 1 7 -419 7 -932z m945 -1797
c300 -28 572 -94 888 -216 l47 -18 0 -53 c0 -29 -4 -53 -8 -53 -5 0 -42 11
-83 25 -40 14 -143 43 -229 64 -299 75 -580 111 -875 111 -331 0 -633 -46
-913 -139 -81 -27 -155 -52 -164 -56 -16 -6 -18 -1 -18 48 l0 55 123 50 c247
102 469 155 767 185 80 8 363 6 465 -3z m2475 -1 c279 -25 519 -84 768 -190
l102 -43 0 -54 c0 -48 -2 -53 -17 -47 -96 39 -342 111 -460 135 -242 49 -411
63 -693 57 -243 -6 -373 -18 -585 -58 -128 -24 -383 -88 -469 -118 -33 -12
-63 -21 -68 -21 -4 0 -8 24 -8 54 l0 53 94 36 c424 163 915 235 1336 196z
m-2395 -269 c245 -27 523 -86 742 -156 l113 -36 0 -49 c0 -28 -5 -49 -11 -49
-5 0 -63 13 -127 29 -502 126 -1001 153 -1527 81 -171 -24 -335 -53 -475 -86
-58 -13 -115 -26 -128 -29 -21 -5 -22 -2 -22 48 l0 53 94 36 c230 90 519 152
806 172 92 6 429 -3 535 -14z m2550 -5 c222 -28 438 -81 621 -153 l94 -36 0
-54 c0 -46 -2 -53 -16 -48 -96 37 -402 96 -640 123 -186 21 -796 24 -974 5
-212 -23 -394 -53 -530 -88 -74 -19 -136 -34 -137 -34 -2 0 -3 22 -3 50 l0 49
113 35 c291 91 542 137 917 170 91 8 439 -4 555 -19z"/>
<path d="M1183 4189 c-20 -20 -15 -57 10 -73 38 -25 92 -30 110 -11 21 21 22
59 2 75 -23 19 -107 25 -122 9z"/>
<path d="M1550 4049 c-21 -39 -5 -62 67 -98 163 -80 333 -198 479 -335 72 -66
106 -80 132 -54 25 25 11 54 -60 124 -142 138 -280 239 -449 328 -114 61 -152
68 -169 35z"/>
<path d="M1192 3804 c-31 -21 -26 -64 8 -80 14 -7 76 -28 139 -48 251 -80 494
-224 749 -445 52 -45 99 -81 106 -81 19 0 46 34 46 57 0 43 -240 244 -438 366
-158 98 -333 177 -482 218 -41 11 -82 22 -90 25 -9 2 -26 -3 -38 -12z"/>
<path d="M1186 3411 c-23 -26 -17 -63 14 -77 14 -7 77 -29 140 -48 249 -79
513 -235 745 -442 84 -74 117 -88 143 -62 26 26 12 58 -50 117 -217 205 -541
402 -798 485 -148 47 -173 51 -194 27z"/>
<path d="M1192 3064 c-22 -15 -22 -19 -22 -243 0 -264 -8 -242 111 -285 42
-15 120 -52 172 -82 52 -30 104 -54 114 -54 41 0 43 15 43 256 l0 232 -63 40
c-84 53 -168 94 -255 126 -40 14 -74 26 -75 26 -2 0 -13 -7 -25 -16z m161
-147 c40 -19 91 -46 115 -60 l42 -27 0 -140 c0 -77 -2 -140 -5 -140 -3 0 -36
15 -73 34 -37 18 -88 41 -114 51 l-48 18 0 148 c0 82 3 149 6 149 3 0 38 -15
77 -33z"/>
<path d="M1787 2752 c-26 -29 -20 -50 23 -80 112 -76 207 -150 278 -217 80
-75 113 -90 140 -63 27 27 13 61 -50 121 -127 121 -314 257 -353 257 -12 0
-29 -8 -38 -18z"/>
<path d="M1778 2356 c-16 -36 -6 -50 59 -92 85 -54 165 -117 254 -200 79 -74
111 -88 137 -62 7 7 12 23 12 37 0 30 -95 125 -220 221 -157 120 -219 145
-242 96z"/>
<path d="M4108 4313 c-9 -10 -50 -92 -92 -183 -96 -210 -97 -221 -25 -372 l52
-107 -44 -96 c-43 -94 -45 -97 -104 -128 -32 -18 -85 -56 -117 -85 l-58 -54
-60 55 c-115 103 -237 151 -374 145 -144 -6 -255 -79 -315 -207 -23 -49 -26
-69 -26 -156 1 -82 5 -113 27 -173 64 -176 236 -382 453 -538 l29 -22 -48
-106 c-27 -58 -53 -106 -58 -106 -5 0 -32 16 -61 35 -56 38 -87 44 -108 19
-12 -15 -26 -245 -28 -456 -1 -81 11 -108 49 -108 10 0 104 77 209 172 160
145 191 177 191 200 0 32 -23 50 -93 68 -26 7 -50 16 -52 20 -3 4 15 52 40
105 44 95 46 97 68 82 61 -39 124 -75 145 -82 39 -11 178 76 367 231 181 147
311 300 382 449 32 68 38 91 41 165 7 135 -29 239 -109 318 -53 52 -129 82
-226 89 -40 3 -73 10 -73 15 0 5 11 31 25 57 l24 49 92 21 c102 24 181 62 209
100 9 15 52 101 94 193 64 137 75 170 67 187 -18 32 -39 32 -171 1 -68 -16
-127 -27 -130 -24 -3 3 -32 58 -65 122 -51 99 -64 117 -86 120 -15 2 -32 -4
-41 -15z m72 -223 c16 -33 30 -64 30 -70 0 -5 -25 -63 -56 -127 l-56 -118 -30
60 c-19 41 -27 70 -24 90 4 30 92 225 101 225 3 0 18 -27 35 -60z m256 -132
c-62 -138 -79 -169 -99 -183 -25 -18 -126 -49 -133 -42 -3 3 20 58 50 123 l55
119 68 16 c37 9 71 17 75 18 4 0 -3 -23 -16 -51z m-956 -619 c61 -32 132 -93
192 -166 35 -44 63 -42 102 4 64 78 135 139 192 168 54 27 68 30 159 30 83 0
107 -4 140 -22 90 -48 120 -106 120 -233 0 -79 -4 -105 -25 -155 -74 -174
-258 -364 -529 -546 -57 -39 -110 -68 -117 -65 -8 3 -39 21 -69 40 l-55 35 45
93 c25 50 45 101 45 111 0 28 -28 57 -55 57 -30 0 -49 -23 -90 -113 -24 -52
-40 -75 -48 -71 -34 20 -185 155 -242 216 -77 84 -131 162 -165 243 -21 50
-25 76 -25 155 0 86 3 100 28 142 51 87 121 120 247 115 74 -3 93 -7 150 -38z"/>
</g>
</svg>
