<?xml version="1.0" standalone="no"?>
<!DOCTYPE svg PUBLIC "-//W3C//DTD SVG 20010904//EN"
 "http://www.w3.org/TR/2001/REC-SVG-20010904/DTD/svg10.dtd">
<svg version="1.0" xmlns="http://www.w3.org/2000/svg"
 width="512.000000pt" height="512.000000pt" viewBox="0 0 512.000000 512.000000"
 preserveAspectRatio="xMidYMid meet">

<g transform="translate(0.000000,512.000000) scale(0.100000,-0.100000)"
fill="#000000" stroke="none">
<path d="M3960 5009 c-130 -52 -139 -254 -14 -314 46 -22 113 -21 159 1 125
59 114 263 -18 313 -35 13 -93 13 -127 0z m116 -125 c22 -32 10 -72 -27 -93
-24 -13 -29 -13 -53 2 -57 38 -37 117 29 117 26 0 39 -6 51 -26z"/>
<path d="M3532 4791 c-94 -24 -152 -102 -152 -208 0 -141 112 -233 249 -205
102 22 164 98 164 204 0 140 -126 242 -261 209z m127 -136 c20 -20 26 -35 26
-71 0 -39 -5 -50 -33 -75 -22 -20 -43 -29 -67 -29 -24 0 -45 9 -67 29 -28 25
-33 36 -33 74 0 47 21 81 60 98 32 14 87 2 114 -26z"/>
<path d="M640 4510 c-19 -19 -20 -33 -20 -448 l0 -428 -158 -52 c-87 -29 -201
-74 -253 -100 l-94 -47 -3 -1658 -2 -1657 24 -11 c19 -9 48 -5 142 20 175 45
396 87 589 113 149 20 214 22 525 23 316 0 373 -3 515 -23 171 -24 427 -77
563 -116 l82 -24 151 39 c340 88 576 120 942 126 445 9 740 -25 1181 -134 109
-27 153 -34 165 -26 15 9 16 143 16 1669 l0 1659 -95 47 c-101 50 -345 135
-472 164 -63 14 -80 15 -92 4 -19 -15 -21 -63 -3 -78 6 -6 57 -22 113 -36 123
-31 277 -84 378 -130 l76 -35 0 -1347 c0 -1073 -3 -1345 -12 -1341 -398 164
-705 227 -1099 227 -286 0 -485 -25 -764 -97 -114 -29 -319 -94 -408 -128 -16
-7 -17 59 -15 1341 l3 1348 75 29 c126 47 375 116 514 142 72 13 139 27 148
30 37 14 30 77 -10 89 -23 8 -251 -34 -403 -73 -94 -24 -281 -86 -350 -115
-11 -5 -24 5 -44 36 -168 256 -458 531 -712 676 -295 169 -631 275 -1036 327
-145 19 -133 19 -157 -5z m258 -111 c503 -76 934 -278 1270 -594 98 -93 219
-237 290 -346 l42 -66 -2 -1301 -3 -1302 -65 85 c-77 102 -275 298 -382 378
-330 246 -723 397 -1180 454 l-138 17 0 1348 c0 1221 1 1348 16 1348 8 0 77
-9 152 -21z m-278 -1809 c0 -1071 -12 -962 106 -975 129 -13 359 -55 491 -90
410 -108 724 -290 1005 -584 112 -117 211 -238 188 -229 -147 56 -452 136
-642 167 -516 87 -1041 21 -1541 -194 -16 -7 -17 61 -17 1339 l0 1346 57 26
c67 30 322 123 341 123 9 1 12 -191 12 -929z m980 -1801 c268 -25 531 -88 798
-191 l102 -40 0 -55 c0 -48 -2 -54 -17 -48 -63 24 -300 90 -413 115 -613 133
-1176 112 -1703 -64 l-158 -53 3 54 3 54 78 35 c392 173 832 238 1307 193z
m2629 -18 c223 -39 433 -101 604 -178 l77 -36 0 -52 0 -52 -157 53 c-545 182
-1142 199 -1778 49 -88 -21 -299 -82 -347 -100 -16 -6 -18 0 -18 49 0 55 1 56
38 72 165 70 448 149 653 184 208 34 272 39 544 35 210 -2 284 -7 384 -24z
m-2509 -256 c232 -32 474 -85 670 -147 l105 -34 3 -52 c2 -29 1 -52 -2 -52 -2
0 -46 11 -98 25 -132 35 -370 81 -528 102 -193 26 -744 26 -945 0 -189 -25
-394 -60 -556 -97 -73 -16 -139 -30 -146 -30 -9 0 -13 16 -13 49 l0 49 105 41
c194 77 449 136 690 160 132 14 578 5 715 -14z m2375 15 c252 -23 506 -81 710
-161 l105 -41 0 -49 c0 -27 -4 -49 -9 -49 -5 0 -51 11 -103 25 -309 81 -635
117 -1053 116 -292 0 -450 -11 -701 -46 -147 -21 -360 -67 -416 -90 -16 -6
-18 -1 -18 44 0 61 -14 53 205 116 228 66 471 111 710 134 130 12 442 13 570
1z"/>
<path d="M1187 3945 c-20 -20 -22 -58 -3 -74 21 -18 103 -26 121 -11 20 17 19
53 -3 73 -28 25 -95 32 -115 12z"/>
<path d="M1560 3810 c-34 -34 -22 -61 40 -94 192 -100 348 -209 487 -339 83
-77 114 -92 141 -65 36 36 2 85 -147 209 -122 102 -241 184 -361 247 -124 65
-134 68 -160 42z"/>
<path d="M1185 3554 c-19 -20 -16 -64 5 -74 8 -4 74 -27 147 -50 259 -82 529
-244 766 -459 67 -61 100 -74 125 -49 7 7 12 24 12 40 0 22 -18 43 -98 113
-249 219 -551 392 -817 469 -105 30 -118 31 -140 10z"/>
<path d="M1183 3169 c-7 -7 -13 -25 -13 -40 0 -35 11 -42 95 -64 262 -68 591
-257 833 -479 40 -36 79 -66 88 -66 32 0 54 20 54 50 0 22 -14 41 -67 90 -99
89 -283 227 -395 293 -236 140 -556 256 -595 216z"/>
<path d="M1187 2818 c-16 -12 -17 -33 -15 -248 l3 -234 25 -13 c14 -6 62 -26
107 -43 45 -18 113 -51 152 -75 85 -53 104 -59 131 -45 19 10 20 19 20 244 l0
234 -32 24 c-75 57 -270 149 -345 164 -16 3 -36 0 -46 -8z m149 -139 c27 -12
77 -38 112 -58 l62 -35 0 -142 0 -143 -92 43 c-51 23 -105 48 -120 54 l-28 12
0 145 c0 80 4 145 9 145 5 0 30 -10 57 -21z"/>
<path d="M1791 2511 c-36 -36 -25 -61 49 -106 74 -46 160 -114 247 -197 82
-79 98 -87 134 -68 38 21 24 61 -43 126 -82 79 -167 149 -253 206 -91 59 -109
64 -134 39z"/>
<path d="M1790 2120 c-39 -39 -32 -48 100 -140 47 -33 123 -94 170 -136 116
-104 125 -109 155 -96 18 8 25 19 25 40 0 22 -15 43 -67 94 -118 113 -316 258
-352 258 -6 0 -20 -9 -31 -20z"/>
<path d="M3576 4276 c-80 -30 -126 -97 -126 -186 0 -83 43 -148 120 -180 l30
-12 0 -427 0 -427 -47 -12 c-26 -7 -84 -30 -129 -51 -260 -122 -427 -327 -496
-608 -32 -131 -29 -322 6 -458 101 -387 393 -644 781 -687 198 -22 414 22 580
118 108 63 254 210 314 317 230 409 143 929 -201 1202 -87 69 -210 134 -305
162 l-63 18 0 427 0 426 33 11 c74 25 135 131 121 210 -10 59 -51 119 -97 144
-39 21 -56 22 -262 24 -169 2 -229 0 -259 -11z m489 -121 c38 -37 35 -95 -6
-129 l-31 -26 -210 0 -210 0 -29 29 c-38 38 -39 87 -4 125 l24 26 221 0 221 0
24 -25z m-125 -718 c0 -516 -8 -473 90 -496 81 -19 227 -91 295 -145 207 -165
315 -388 315 -649 0 -223 -73 -408 -224 -565 -112 -118 -236 -191 -391 -233
-111 -30 -296 -30 -410 0 -105 27 -246 98 -317 158 -120 102 -220 263 -264
423 -26 92 -26 348 -1 440 75 277 280 483 561 564 48 14 92 28 97 32 5 3 9
160 9 373 0 202 3 409 6 459 l7 92 113 0 114 0 0 -453z"/>
<path d="M4027 2466 c-116 -59 -230 -91 -300 -83 -23 3 -69 15 -102 28 -84 32
-231 33 -290 2 -100 -53 -139 -125 -138 -258 1 -211 96 -403 254 -514 152
-107 342 -143 529 -99 84 19 207 85 272 147 183 171 247 469 149 693 -37 86
-119 138 -214 138 -46 0 -71 -8 -160 -54z m-432 -162 c276 -101 416 -130 584
-121 58 4 118 9 134 13 l27 6 0 -59 c0 -214 -160 -429 -367 -493 -77 -24 -203
-26 -279 -6 -134 36 -271 146 -332 266 -64 128 -78 304 -30 366 47 60 148 70
263 28z"/>
<path d="M3590 2098 c-59 -40 -78 -110 -44 -168 53 -88 186 -74 223 24 41 107
-85 208 -179 144z"/>
<path d="M4027 2032 c-31 -34 -16 -83 29 -96 28 -8 74 28 74 58 0 49 -70 75
-103 38z"/>
</g>
</svg>
