<?xml version="1.0" standalone="no"?>
<!DOCTYPE svg PUBLIC "-//W3C//DTD SVG 20010904//EN"
 "http://www.w3.org/TR/2001/REC-SVG-20010904/DTD/svg10.dtd">
<svg version="1.0" xmlns="http://www.w3.org/2000/svg"
 width="512.000000pt" height="512.000000pt" viewBox="0 0 512.000000 512.000000"
 preserveAspectRatio="xMidYMid meet">

<g transform="translate(0.000000,512.000000) scale(0.100000,-0.100000)"
fill="#000000" stroke="none">
<path d="M2195 5033 c-514 -34 -954 -264 -1195 -625 -157 -235 -234 -474 -256
-794 l-7 -100 -51 -27 c-29 -15 -82 -52 -118 -82 -277 -230 -364 -662 -202
-1004 89 -189 239 -332 424 -402 26 -10 82 -40 123 -67 157 -103 367 -138 548
-93 179 44 354 166 450 311 l16 25 29 -35 c158 -194 402 -301 654 -287 127 8
199 26 305 77 206 99 361 296 416 525 17 74 20 111 16 210 -7 190 -65 336
-185 466 l-53 57 20 99 c38 191 46 283 46 543 -1 275 -17 412 -69 588 -103
343 -298 551 -568 606 -71 15 -205 18 -343 9z m340 -119 c288 -69 472 -348
526 -799 17 -140 14 -454 -5 -605 -16 -130 -33 -231 -40 -237 -3 -3 -98 45
-124 62 -1 1 6 54 17 116 71 401 48 776 -63 1013 -104 224 -283 339 -526 339
-263 1 -456 -125 -580 -378 -101 -203 -136 -399 -126 -710 3 -110 8 -212 12
-227 l6 -28 -63 29 c-79 36 -77 30 -86 311 -4 163 -2 228 11 318 47 320 167
543 366 679 176 119 459 169 675 117z m-871 -146 c-165 -170 -253 -399 -285
-748 -11 -118 -7 -326 7 -432 l7 -48 -34 0 c-19 0 -65 9 -104 20 -120 34 -284
36 -389 4 -18 -6 -19 -2 -13 82 18 247 107 515 239 714 90 136 262 294 411
375 57 31 199 93 217 95 2 0 -23 -28 -56 -62z m703 -103 c100 -67 168 -182
199 -334 25 -125 16 -346 -21 -506 -29 -130 -89 -302 -130 -371 -21 -35 -31
-44 -54 -44 -85 0 -308 -88 -331 -130 -14 -26 0 -60 27 -71 20 -7 35 -3 78 21
223 128 484 94 676 -88 131 -123 193 -268 193 -452 0 -156 -36 -265 -127 -385
-85 -112 -215 -192 -363 -222 -161 -33 -346 20 -474 135 l-55 49 28 79 c15 43
34 111 42 149 16 76 19 273 6 343 -8 38 -5 47 21 83 31 43 100 91 156 110 57
19 179 7 237 -24 138 -71 216 -233 185 -384 -27 -130 -108 -228 -221 -269 -57
-20 -165 -20 -213 0 -54 23 -93 21 -107 -5 -26 -49 21 -88 129 -109 183 -36
365 50 465 220 73 125 75 316 6 452 -12 23 -46 68 -77 100 -155 163 -398 182
-572 45 l-54 -43 -33 69 c-45 94 -85 149 -169 237 l-72 75 -11 110 c-18 179
-14 444 9 577 58 337 212 545 446 602 95 23 123 20 181 -19z m230 -51 c121
-92 204 -256 233 -459 14 -100 14 -372 0 -496 -10 -94 -39 -281 -43 -285 -1
-1 -29 4 -62 12 -33 7 -92 14 -131 14 -39 0 -73 3 -77 6 -3 4 0 16 8 28 25 38
74 173 99 273 42 162 59 288 59 443 1 202 -31 337 -105 448 -33 48 -29 52 19
16z m-1402 -1149 c184 -39 362 -177 444 -346 62 -130 76 -192 76 -354 0 -119
-4 -151 -23 -215 -88 -282 -282 -450 -567 -491 -237 -34 -497 99 -634 325 -18
31 -47 95 -64 143 -26 74 -31 107 -35 208 -5 148 12 238 67 350 93 194 250
329 441 379 72 19 207 19 295 1z m502 -177 c269 -212 348 -650 178 -988 -110
-219 -295 -350 -527 -375 -75 -8 -220 11 -197 26 8 5 24 9 37 9 13 0 58 12
100 26 244 81 426 278 508 551 23 77 27 107 28 233 1 122 -3 157 -21 222 -38
130 -77 205 -175 333 -27 35 -13 27 69 -37z m1268 -118 c136 -93 234 -244 269
-413 46 -222 -17 -431 -179 -592 -44 -44 -105 -95 -137 -113 -118 -70 -292
-110 -408 -94 l-55 8 60 8 c82 11 202 56 272 103 238 158 366 475 309 763 -21
103 -87 246 -146 313 -23 26 -39 47 -35 47 3 0 26 -13 50 -30z"/>
<path d="M3292 3348 c-15 -15 -15 -43 -2 -69 10 -18 28 -19 671 -19 727 0 710
1 749 -62 20 -33 20 -47 20 -1205 l0 -1173 -967 -2 -968 -3 -60 -28 c-33 -16
-72 -40 -87 -54 l-28 -27 0 478 c0 310 -4 484 -10 497 -16 28 -65 25 -85 -5
-14 -21 -16 -95 -13 -663 l3 -638 23 -58 c33 -81 114 -166 194 -203 l63 -29
1005 -3 1005 -3 18 22 c16 20 17 108 17 1534 0 1644 3 1565 -55 1642 -15 19
-51 46 -79 59 l-51 24 -675 0 c-513 0 -679 -3 -688 -12z m1438 -2683 l0 -55
-913 0 c-810 0 -915 -2 -935 -16 -28 -20 -30 -69 -3 -84 13 -7 323 -10 935
-10 l916 0 0 -50 0 -50 -796 0 c-529 0 -802 -3 -815 -10 -13 -8 -19 -21 -19
-46 0 -28 5 -36 26 -44 16 -6 326 -10 815 -10 l789 0 0 -55 0 -55 -957 2
c-893 3 -961 4 -996 21 -55 26 -112 81 -138 135 -27 58 -30 158 -5 214 34 78
113 142 196 159 19 4 455 7 968 8 l932 1 0 -55z"/>
<path d="M2876 384 c-21 -21 -20 -57 2 -77 24 -22 55 -21 75 1 34 37 11 92
-38 92 -13 0 -31 -7 -39 -16z"/>
<path d="M3681 2255 l-89 -75 -82 0 c-96 0 -143 -18 -171 -64 -17 -27 -19 -52
-19 -201 0 -188 5 -205 59 -242 29 -20 47 -23 122 -23 l88 0 88 -75 c93 -79
122 -89 147 -53 14 19 16 74 16 395 0 360 -1 374 -20 393 -11 11 -27 20 -35
20 -8 0 -55 -34 -104 -75z m49 -346 l0 -240 -48 40 -48 41 -90 0 c-129 0 -125
-5 -122 170 l3 145 102 3 101 3 44 39 c23 22 46 39 51 40 4 0 7 -108 7 -241z"/>
<path d="M4022 2241 c-72 -47 -86 -67 -69 -102 19 -38 51 -35 122 11 80 52 91
74 55 110 -28 28 -38 26 -108 -19z"/>
<path d="M3980 1963 c-21 -8 -30 -24 -30 -55 0 -37 25 -48 103 -48 67 0 97 16
97 53 0 36 -37 57 -97 56 -32 0 -65 -3 -73 -6z"/>
<path d="M3968 1708 c-42 -34 -26 -67 56 -122 64 -42 90 -45 112 -11 23 35 11
55 -61 103 -70 45 -83 49 -107 30z"/>
</g>
</svg>
